<svg width="134" height="40" viewBox="0 0 134 40" fill="none" xmlns="http://www.w3.org/2000/svg">
<g id="trootech_logo 1" clip-path="url(#clip0_13926_14984)">
<path id="Vector" fill-rule="evenodd" clip-rule="evenodd" d="M12.4142 3.01123C17.6919 2.90299 21.5617 4.44545 25.0203 6.21314C26.2799 6.85691 27.9348 7.47918 28.8881 8.45925H13.2737L13.3692 8.36367L15.5657 5.01839C14.7725 4.61487 12.9912 4.72641 12.0322 4.87502C8.73219 5.38637 6.69845 5.9448 5.29936 8.26809L4.72636 9.654C4.69293 6.10733 6.69817 4.31169 9.35815 3.48913C10.2657 3.20851 11.4607 3.38051 12.4142 3.01123ZM13.7989 12.8559V28.7699L18.4307 28.8177L15.6612 34.0746L3.24609 27.6707L10.9339 12.8559H13.7989ZM19.0992 12.8559H23.349V19.2119L19.0992 26.8583V12.8559Z" fill="white"/>
<path id="Vector_2" fill-rule="evenodd" clip-rule="evenodd" d="M33.9997 20.423L36.6575 24.0268L44.8762 8.42423L32.405 2.03576L29.4202 7.64626C29.4202 7.64626 21.8592 1.26272 14.8635 0.356764C14.8635 0.356764 3.28828 -2.15248 0.429647 7.1547C0.429647 7.1547 -1.28861 12.1928 2.55588 18.785C2.55588 18.785 4.76783 22.4505 5.49989 23.3716L7.13544 20.2592C7.13544 20.2592 3.06581 14.4956 3.16938 10.4308C3.16938 10.4308 2.48932 2.97741 11.061 2.11767C11.061 2.11767 16.7733 1.28938 24.5543 4.98428C24.5543 4.98428 25.4031 5.29257 29.3384 7.76899L29.0112 8.47881C29.0112 8.47881 35.7852 8.08296 37.3935 11.2499C37.3935 11.2499 39.3289 14.3759 37.5162 17.8022C37.5162 17.8022 36.4258 19.5903 34.0815 20.3821L33.9997 20.423Z" fill="white"/>
<path id="Vector_3" fill-rule="evenodd" clip-rule="evenodd" d="M28.6875 12.4782V17.5562C28.6875 17.5562 32.1647 18.0361 32.8582 15.4267C32.8582 15.4267 33.1068 12.8467 30.8956 12.601C30.8956 12.601 29.6264 12.4143 28.8511 12.4782H28.6876H28.6875Z" fill="white"/>
<path id="Vector_4" fill-rule="evenodd" clip-rule="evenodd" d="M23.3705 19.0684V28.7761H28.6842V20.8315L33.7136 28.6124L34.2451 28.6533L31.3829 34.1408L18.7891 27.4247L23.3705 19.0684Z" fill="white"/>
<path id="Vector_5" fill-rule="evenodd" clip-rule="evenodd" d="M40.9932 28.0801H43.3647C43.3647 28.0801 44.0927 36.0256 35.6367 35.1647C35.6367 35.1647 37.6463 34.855 39.8074 32.7896C39.8074 32.7896 41.4886 30.6328 41.034 28.4487L40.9932 28.0801Z" fill="white"/>
<path id="Vector_6" fill-rule="evenodd" clip-rule="evenodd" d="M44.8759 28.0801H46.2662C46.2662 28.0801 46.4046 32.4197 44.4671 35.5333C44.4671 35.5333 40.7444 40.6443 33.5088 39.7513C33.5088 39.7513 28.6924 39.527 21.283 36.0656C21.283 36.0656 16.8104 33.7192 16.1719 33.1581L17.5621 30.4143C17.5621 30.4143 22.3285 34.595 30.7283 36.9256C30.7283 36.9256 39.0002 39.4648 42.7906 34.059C42.7906 34.059 44.7177 31.0435 44.8759 28.2439V28.0801Z" fill="white"/>
<path id="Vector_7" fill-rule="evenodd" clip-rule="evenodd" d="M13.7734 27.5488V28.7882H15.272C15.272 28.7882 14.3075 28.2141 13.7734 27.5488V27.5078V27.5488Z" fill="white"/>
<path id="Vector_8" fill-rule="evenodd" clip-rule="evenodd" d="M55.6515 18.5089C55.6515 16.3799 54.972 14.6157 53.6125 13.2163C52.2531 11.8169 50.4901 11.1172 48.3227 11.1172C46.1717 11.1172 44.4265 11.8169 43.0872 13.2163C41.7479 14.6157 41.0782 16.3799 41.0781 18.5089V21.6426C41.0781 23.7796 41.7498 25.5459 43.0932 26.9412C44.4366 28.3366 46.1838 29.0343 48.3347 29.0344C50.5016 29.0344 52.2626 28.3367 53.6183 26.9412C54.9739 25.5458 55.6515 23.7796 55.6515 21.6426V18.5089ZM52.149 21.6576C52.149 23.0398 51.8133 24.1662 51.1414 25.037C50.4696 25.9078 49.5342 26.3432 48.3347 26.3432C47.1513 26.3432 46.2278 25.9078 45.5641 25.037C44.9004 24.1663 44.5685 23.0398 44.5685 21.6576V18.4939C44.5685 17.1277 44.8964 16.0112 45.5522 15.1445C46.208 14.2778 47.1316 13.8443 48.3227 13.8442C49.5141 13.8442 50.45 14.2796 51.1295 15.1505C51.8095 16.0214 52.1495 17.1358 52.149 18.4939V21.6576ZM72.432 18.5089C72.432 16.3799 71.7525 14.6157 70.393 13.2163C69.0336 11.8169 67.2706 11.1172 65.1032 11.1172C62.9521 11.1172 61.2068 11.8169 59.8678 13.2163C58.528 14.6157 57.858 16.3799 57.8585 18.5089V21.6426C57.8585 23.7796 58.5304 25.5459 59.8736 26.9412C61.2168 28.3366 62.964 29.0343 65.1151 29.0344C67.2821 29.0344 69.0431 28.3367 70.3987 26.9412C71.7544 25.5458 72.432 23.7796 72.432 21.6426V18.5089ZM68.9295 21.6576C68.9295 23.0398 68.5938 24.1662 67.9219 25.037C67.2501 25.9078 66.3146 26.3432 65.1151 26.3432C63.9319 26.3432 63.0084 25.9078 62.3447 25.037C61.6809 24.1663 61.3491 23.0398 61.3491 21.6576V18.4939C61.3491 17.1277 61.6771 16.0112 62.3327 15.1445C62.9879 14.2777 63.9114 13.8443 65.1032 13.8442C66.2951 13.844 67.2305 14.2795 67.91 15.1505C68.5895 16.0214 68.9295 17.1359 68.9295 18.4939V21.6576Z" fill="white"/>
<path id="Vector_9" fill-rule="evenodd" clip-rule="evenodd" d="M87.5339 12.5811H74.1719V15.2723H79.0897V29.996H82.5922V15.2723H87.5339V12.5811ZM100.224 19.6499H92.9913V15.2724H101.424V12.5811H89.4893V29.996H101.448V27.3048H92.9913V22.3413H100.224V19.6499ZM113.382 24.0635C113.382 25.2197 113.121 26.0908 112.597 26.6768C112.073 27.2628 111.264 27.5559 110.168 27.5562C109.064 27.5562 108.188 27.132 107.541 26.2837C106.893 25.4353 106.569 24.3458 106.569 23.0151V19.538C106.569 18.2236 106.877 17.1422 107.493 16.2938C108.109 15.4454 108.94 15.0212 109.988 15.0211C111.155 15.0211 112.015 15.3261 112.567 15.9361C113.119 16.5461 113.394 17.4252 113.394 18.5735H116.801L116.825 18.5018C116.857 16.5961 116.265 15.091 115.05 13.9866C113.834 12.8821 112.147 12.33 109.988 12.3301C107.941 12.3301 106.277 13.0078 104.998 14.3634C103.719 15.7189 103.079 17.4532 103.079 19.5662V23.0228C103.079 25.144 103.735 26.8783 105.046 28.2258C106.358 29.5735 108.065 30.2473 110.168 30.2473C112.263 30.2473 113.9 29.6971 115.08 28.5967C116.259 27.4963 116.833 26.0092 116.801 24.1353L116.777 24.0637H113.382V24.0635ZM133.413 12.5811H129.923V20.0686H122.798V12.5811H119.296V29.996H122.798V22.7597H129.923V29.996H133.413V12.5811Z" fill="white"/>
</g>
<defs>
<clipPath id="clip0_13926_14984">
<rect width="133.415" height="40" fill="white"/>
</clipPath>
</defs>
</svg>
